<svg width="25" height="25" viewBox="0 0 25 25" fill="none" xmlns="http://www.w3.org/2000/svg">
<g clip-path="url(#clip0)">
<path d="M15.3809 8.83789C15.3809 9.64546 14.7236 10.3027 13.916 10.3027C13.5548 10.3027 13.208 10.1704 12.9396 9.93004C12.723 9.73778 12.414 9.69124 12.1523 9.80701C11.8883 9.92508 11.7188 10.1868 11.7188 10.4757V13.3333C11.4719 13.2668 11.216 13.2324 10.9556 13.2324C9.33972 13.2324 8.02594 14.5464 8.02594 16.1621C8.02594 17.7778 9.33972 19.0918 10.9556 19.0918C11.2173 19.0918 11.4712 19.0454 11.7188 18.9785V25H6.56109C6.15617 25 5.81055 24.6723 5.81055 24.2676V20.5566H3.63141C3.22648 20.5566 2.88087 20.229 2.88087 19.8242V16.1621H0.683604C0.440417 16.1621 0.213634 16.0412 0.0770674 15.8401C-0.0587358 15.6393 -0.0867739 15.3831 0.00344372 15.1579L1.95046 10.3363V8.10547C1.95046 3.66306 5.5647 0 10.0071 0H11.7188V7.19986C11.7188 7.48882 11.8883 7.7507 12.1523 7.86877C12.4155 7.98531 12.723 7.93877 12.9396 7.74574C13.208 7.50542 13.5548 7.37305 13.916 7.37305C14.7236 7.37305 15.3809 8.03032 15.3809 8.83789Z" fill="white"/>
<path d="M24.2187 16.1621H21.9726V19.8242C21.9726 20.229 21.6452 20.5566 21.2402 20.5566H19.043V24.2676C19.043 24.6723 18.7155 25 18.3105 25H13.1836V17.7721C13.1836 17.1654 12.417 16.8039 11.9526 17.2358C11.6808 17.4883 11.3268 17.627 10.9556 17.627C10.148 17.627 9.49077 16.9697 9.49077 16.1621C9.49077 15.3547 10.148 14.6973 10.9556 14.6973C11.3268 14.6973 11.6808 14.8361 11.9526 15.0887C12.1658 15.2866 12.4769 15.3397 12.7437 15.2237C13.0112 15.1072 13.1836 14.8432 13.1836 14.5521V11.6747C13.421 11.7361 13.6663 11.7676 13.916 11.7676C15.5317 11.7676 16.8457 10.4538 16.8457 8.83789C16.8457 7.22218 15.5317 5.9082 13.916 5.9082C13.6663 5.9082 13.421 5.93967 13.1836 6.00128V0H14.8645C19.3069 0 22.9212 3.66306 22.9212 8.10547V10.3363L24.8989 15.1579C24.9891 15.3831 24.9613 15.6393 24.8253 15.8403C24.6887 16.0412 24.4619 16.1621 24.2187 16.1621Z" fill="white"/>
</g>
<defs>
<clipPath id="clip0">
<rect width="25" height="25" fill="white" transform="matrix(-1 0 0 1 25 0)"/>
</clipPath>
</defs>
</svg>
