<svg width="25" height="25" viewBox="0 0 25 25" fill="none" xmlns="http://www.w3.org/2000/svg">
<g clip-path="url(#clip0)">
<path d="M15.625 6.771C15.05 6.771 14.5834 6.30433 14.5834 5.72933V4.16683H10.4167V5.72933C10.4167 6.30433 9.95001 6.771 9.37501 6.771C8.80001 6.771 8.33334 6.30433 8.33334 5.72933V4.16683C8.33334 3.01787 9.26772 2.0835 10.4167 2.0835H14.5834C15.7323 2.0835 16.6667 3.01787 16.6667 4.16683V5.72933C16.6667 6.30433 16.2 6.771 15.625 6.771Z" fill="white"/>
<path d="M13.2396 16.0207C13.0521 16.0936 12.7812 16.1457 12.5 16.1457C12.2187 16.1457 11.9479 16.0936 11.6979 15.9998L0 12.104V20.0519C0 21.6352 1.28125 22.9165 2.86458 22.9165H22.1354C23.7187 22.9165 25 21.6352 25 20.0519V12.104L13.2396 16.0207Z" fill="white"/>
<path d="M25 8.07308V10.4585L12.75 14.5418C12.6667 14.5731 12.5833 14.5835 12.5 14.5835C12.4167 14.5835 12.3333 14.5731 12.25 14.5418L0 10.4585V8.07308C0 6.48975 1.28125 5.2085 2.86458 5.2085H22.1354C23.7187 5.2085 25 6.48975 25 8.07308Z" fill="white"/>
</g>
<defs>
<clipPath id="clip0">
<rect width="25" height="25" fill="white"/>
</clipPath>
</defs>
</svg>
